<svg width="144" height="24" viewBox="0 0 144 24" fill="none" xmlns="http://www.w3.org/2000/svg">
<g clip-path="url(#clip0_288_841)">
<path d="M5.1795 6.79544L8.59558 18.5924L11.9038 6.79544H17.0104L11.0585 23.3838H5.95191L0 6.79544H5.1795Z" fill="#282828"/>
<path d="M27.8504 21.3884C26.3435 23.1679 24.7637 23.928 22.3386 23.928C18.8467 23.928 16.6432 21.9326 16.6432 18.9553C16.6432 16.597 18.1501 14.7455 20.5373 14.1639C22.1171 13.8011 23.7348 13.6917 27.556 13.5823V12.8566C27.556 10.6798 26.7107 9.80733 24.58 9.80733C22.8895 9.80733 22.0821 10.5329 21.9713 12.0936H17.1591C17.3427 10.2047 17.8936 9.00685 19.179 7.95586C20.5752 6.75802 22.2278 6.2858 24.8744 6.2858C29.8353 6.2858 32.2604 8.1747 32.2604 12.0936V20.4785C32.2604 20.8413 32.3711 22.4394 32.4061 23.3809H27.8504V21.3855V21.3884ZM27.556 16.2716C24.6179 16.3091 23.2946 16.525 22.4494 16.9973C21.9364 17.2881 21.5312 17.9417 21.5312 18.6299C21.5312 19.8277 22.4144 20.4814 23.9942 20.4814C25.9791 20.4814 27.5589 19.2835 27.5589 17.7603V16.2716H27.556Z" fill="#282828"/>
<path d="M34.5367 0.54422H39.2032V23.3838H34.5367V0.54422Z" fill="#282828"/>
<path d="M57.1348 18.7739C56.1059 22.0391 53.2407 24 49.4195 24C44.4236 24 41.0425 20.5505 41.0425 15.4337C41.0425 10.0262 44.5343 6.21381 49.4923 6.21381C54.4503 6.21381 57.4641 9.73534 57.4641 15.1803V16.4502H45.8897C46.0354 18.9898 47.248 20.2971 49.4544 20.2971C50.9235 20.2971 51.8795 19.7529 52.4304 18.5176L57.1348 18.771V18.7739ZM52.8006 13.5477C52.6898 11.2614 51.4423 9.88219 49.4573 9.88219C47.4724 9.88219 46.187 11.1895 45.8926 13.5477H52.8006Z" fill="#282828"/>
<path d="M73.7051 8.86573C75.247 10.5358 76.0194 12.6407 76.0194 15.1458C76.0194 20.3719 72.6383 23.8934 67.4588 23.8934C62.2793 23.8934 58.8253 20.4813 58.8253 15.1458C58.8253 9.81018 62.2414 6.32608 67.4588 6.32608C70.1404 6.32608 72.0874 7.12368 73.7051 8.86573ZM63.6376 15.0363C63.6376 18.0137 65.1066 19.9371 67.348 19.9371C69.7352 19.9371 71.2071 18.1231 71.2071 15.0363C71.2071 11.9496 69.7381 10.245 67.4238 10.245C65.1095 10.245 63.6405 12.131 63.6405 15.0363H63.6376Z" fill="#282828"/>
<path d="M77.8936 6.79544H82.4872L82.5251 8.46551C83.6997 6.86743 85.1338 6.14182 87.3023 6.14182C90.9021 6.14182 93.0327 8.20924 93.0327 11.7308V23.3809H88.3662V13.182C88.3662 11.1146 87.3752 9.95129 85.6118 9.95129C83.7026 9.95129 82.563 11.3305 82.563 13.7262V23.3809H77.8965V6.79544H77.8936Z" fill="#282828"/>
<path d="M100.381 2.75849C100.381 4.2817 99.1683 5.44499 97.6264 5.44499C96.0845 5.44499 94.907 4.24715 94.907 2.75849C94.907 1.26983 96.1574 0 97.6264 0C99.0955 0 100.381 1.23527 100.381 2.75849ZM95.2742 6.79544H99.9408V23.3838H95.2742V6.79544Z" fill="#282828"/>
<path d="M107.4 6.79544L109.787 11.4054L112.25 6.79544H117.945L112.582 14.9615L118.204 23.3809H112.363L109.793 18.6615L107.222 23.3809H101.491L107.003 15.0335L101.529 6.79544H107.408H107.4Z" fill="#282828"/>
<path d="M144.003 6.79544H127.237V23.3579H144.003V6.79544Z" fill="#EC2027"/>
<path d="M140.858 13.5247H130.379V16.6287H140.858V13.5247Z" fill="white"/>
<path d="M137.188 9.90234H134.046V20.2539H137.188V9.90234Z" fill="white"/>
<path d="M144.003 6.79544H127.237V23.3579H144.003V6.79544Z" fill="#EC2027"/>
<path d="M140.858 13.5247H130.379V16.6287H140.858V13.5247Z" fill="white"/>
<path d="M137.188 9.90234H134.046V20.2539H137.188V9.90234Z" fill="white"/>
</g>
<defs>
<clipPath id="clip0_288_841">
<rect width="144" height="24" fill="white"/>
</clipPath>
</defs>
</svg>
