<svg width="44" height="15" fill="none" xmlns="http://www.w3.org/2000/svg"><path fill-rule="evenodd" clip-rule="evenodd" d="M18.297 1.209 16.1 14.701h3.513l2.195-13.492h-3.512Zm-5.15 0-3.35 9.28-.396-1.999v.001l-.087-.448a11.189 11.189 0 0 0-3.116-3.95A14.053 14.053 0 0 0 4.635 3.01l3.043 11.69h3.66l5.589-13.492h-3.78Zm13.708 3.746c0-1.526 3.42-1.33 4.924-.501l.5-2.898S30.734.968 29.12.968c-1.743 0-5.882.762-5.882 4.466 0 3.486 4.858 3.53 4.858 5.36 0 1.83-4.357 1.503-5.795.348l-.523 3.029s1.569.762 3.965.762c2.397 0 6.014-1.241 6.014-4.619 0-3.508-4.902-3.834-4.902-5.36Zm14.333-3.746h-2.824c-1.304 0-1.622 1.005-1.622 1.005l-5.238 12.487h3.661l.733-2.004h4.465l.412 2.004H44L41.188 1.209Zm-4.278 8.72 1.845-5.05 1.039 5.05H36.91Z" fill="#000"/><path fill-rule="evenodd" clip-rule="evenodd" d="M8.268 2.479S8.122 1.26 6.57 1.26H.931l-.066.23s2.71.552 5.311 2.622C8.661 6.09 9.472 8.558 9.472 8.558l-1.204-6.08Z" fill="#000"/></svg>