<svg width="48" height="14" fill="none" xmlns="http://www.w3.org/2000/svg"><path d="M0 .453h4.492c.409 0 1.634-.136 2.179 1.77.408 1.225.953 3.131 1.77 5.99h.272c.816-2.995 1.497-5.037 1.77-5.99.544-1.906 1.905-1.77 2.45-1.77h4.22v13.07h-4.356v-7.76h-.273l-2.314 7.76H6.943l-2.314-7.76H4.22v7.76H0M18.923.452h4.356v7.76h.409l2.858-6.398c.545-1.226 1.77-1.362 1.77-1.362H32.4v13.07h-4.356v-7.76h-.272l-2.86 6.398c-.544 1.225-1.905 1.361-1.905 1.361h-4.084m19.331-3.948v3.948H34.17V6.716h13.341c-.544 1.633-2.45 2.858-4.628 2.858M47.784 5.899c.544-2.45-1.09-5.446-4.629-5.446h-9.257C34.17 3.312 36.62 5.9 39.208 5.9" fill="#000"/></svg>