<svg width="119" height="24" fill="none" xmlns="http://www.w3.org/2000/svg"><path d="m5.18 6.795 3.416 11.797 3.308-11.797h5.106l-5.952 16.589H5.953L0 6.795h5.18ZM27.85 21.388c-1.507 1.78-3.086 2.54-5.511 2.54-3.492 0-5.696-1.995-5.696-4.973 0-2.358 1.507-4.21 3.894-4.791 1.58-.363 3.198-.472 7.019-.582v-.725c0-2.177-.845-3.05-2.976-3.05-1.69 0-2.498.726-2.609 2.287H17.16c.184-1.89.735-3.087 2.02-4.138 1.396-1.198 3.049-1.67 5.695-1.67 4.961 0 7.386 1.889 7.386 5.808v8.385c0 .362.111 1.96.146 2.902H27.85v-1.995.002Zm-.294-5.116c-2.938.037-4.261.253-5.107.725-.513.291-.918.945-.918 1.633 0 1.198.883 1.851 2.463 1.851 1.985 0 3.565-1.198 3.565-2.72v-1.49h-.003ZM34.537.544h4.666v22.84h-4.666V.544ZM57.135 18.774C56.105 22.039 53.24 24 49.42 24c-4.996 0-8.378-3.45-8.378-8.566 0-5.408 3.492-9.22 8.45-9.22 4.958 0 7.972 3.521 7.972 8.966v1.27H45.89c.145 2.54 1.358 3.847 3.564 3.847 1.47 0 2.425-.544 2.976-1.78l4.705.254v.003ZM52.8 13.548c-.111-2.287-1.359-3.666-3.344-3.666-1.985 0-3.27 1.308-3.564 3.666H52.8ZM73.705 8.866c1.542 1.67 2.314 3.775 2.314 6.28 0 5.226-3.38 8.747-8.56 8.747-5.18 0-8.634-3.412-8.634-8.747 0-5.336 3.416-8.82 8.634-8.82 2.681 0 4.628.798 6.246 2.54Zm-10.067 6.17c0 2.978 1.469 4.901 3.71 4.901 2.387 0 3.86-1.814 3.86-4.9 0-3.087-1.47-4.792-3.784-4.792-2.315 0-3.784 1.886-3.784 4.791h-.002ZM77.894 6.795h4.593l.038 1.67c1.175-1.598 2.609-2.323 4.777-2.323 3.6 0 5.73 2.067 5.73 5.589v11.65h-4.666V13.182c0-2.067-.99-3.23-2.754-3.23-1.91 0-3.049 1.379-3.049 3.774v9.655h-4.666V6.795h-.003ZM100.381 2.758c0 1.524-1.213 2.687-2.755 2.687-1.541 0-2.719-1.198-2.719-2.687 0-1.488 1.25-2.758 2.72-2.758 1.469 0 2.754 1.235 2.754 2.758Zm-5.107 4.037h4.667v16.589h-4.667V6.795ZM107.4 6.795l2.387 4.61 2.463-4.61h5.695l-5.363 8.166 5.622 8.42h-5.841l-2.57-4.72-2.571 4.72h-5.731l5.512-8.348-5.474-8.238h5.879-.008Z" fill="#000"/></svg>