<svg width="27" height="16" fill="none" xmlns="http://www.w3.org/2000/svg"><path d="m13.16 14.473.198.157a8.109 8.109 0 0 1-4.47 1.332C4.429 15.963.816 12.39.816 7.982S4.429 0 8.886 0a8.1 8.1 0 0 1 4.468 1.332c-.065.055-.13.106-.18.162a8.531 8.531 0 0 0-3.004 6.488 8.565 8.565 0 0 0 2.99 6.49ZM18.865 0c-1.654 0-3.19.49-4.467 1.332.065.055.13.106.18.162a8.531 8.531 0 0 1 3.004 6.488c0 2.486-1.089 4.85-2.99 6.49-.063.053-.131.106-.197.158a8.103 8.103 0 0 0 4.47 1.332c4.458.001 8.072-3.572 8.072-7.98C26.936 3.575 23.322 0 18.864 0Zm-4.988 1.711a7.915 7.915 0 0 0-3.081 6.27 7.913 7.913 0 0 0 3.08 6.272 7.917 7.917 0 0 0 0-12.542Z" fill="#000"/></svg>