<svg width="48" height="14" viewBox="0 0 48 14" fill="none" xmlns="http://www.w3.org/2000/svg">
<path d="M0 0.453299H4.49248C4.90088 0.453299 6.1261 0.317163 6.67064 2.22306C7.07905 3.44828 7.62359 5.35418 8.44041 8.21303H8.71268C9.52949 5.21805 10.2102 3.17601 10.4824 2.22306C11.027 0.317163 12.3883 0.453299 12.9329 0.453299H17.1531V13.5223H12.7967V5.76259H12.5245L10.2102 13.5223H6.94292L4.62861 5.76259H4.2202V13.5223H0M18.9228 0.453299H23.2792V8.21303H23.6876L26.5464 1.81466C27.091 0.589435 28.3162 0.453299 28.3162 0.453299H32.4003V13.5223H28.0439V5.76259H27.7717L24.9128 12.161C24.3683 13.3862 23.0069 13.5223 23.0069 13.5223H18.9228M38.2541 9.57438V13.5223H34.17V6.71554H47.5113C46.9668 8.34916 45.0609 9.57438 42.8827 9.57438" fill="black"></path>
<path d="M47.7836 5.89855C48.3281 3.44811 46.6945 0.453125 43.155 0.453125H33.8978C34.17 3.31197 36.6205 5.89855 39.2071 5.89855" fill="black"></path>
</svg>
