<svg width="44" height="15" viewBox="0 0 44 15" fill="none" xmlns="http://www.w3.org/2000/svg">
<path fill-rule="evenodd" clip-rule="evenodd" d="M18.2968 1.20901L16.1014 14.701H19.6138L21.8095 1.20901H18.2968ZM13.1462 1.20901L9.79733 10.4887L9.4012 8.49044L9.40148 8.49109L9.31419 8.04323C8.90889 7.16976 7.97021 5.50964 6.19773 4.09287C5.67371 3.6741 5.14547 3.31671 4.63483 3.01142L7.6784 14.701H11.3381L16.9266 1.20901H13.1462ZM26.8546 4.95465C26.8546 3.42926 30.2754 3.62527 31.7785 4.45354L32.2797 1.55583C32.2797 1.55583 30.7328 0.967529 29.1204 0.967529C27.3772 0.967529 23.2379 1.72985 23.2379 5.43395C23.2379 8.91997 28.0962 8.96329 28.0962 10.7935C28.0962 12.6237 23.7388 12.2966 22.3008 11.1421L21.7782 14.1709C21.7782 14.1709 23.3465 14.9332 25.7434 14.9332C28.14 14.9332 31.7566 13.6916 31.7566 10.3142C31.7566 6.80637 26.8546 6.47966 26.8546 4.95465ZM41.1879 1.20901H38.3638C37.0597 1.20901 36.7422 2.21449 36.7422 2.21449L31.504 14.701H35.1651L35.8975 12.697H40.3628L40.7748 14.701H44L41.1879 1.20901ZM36.9097 9.92835L38.7554 4.87933L39.7937 9.92835H36.9097Z" fill="black"></path>
<path fill-rule="evenodd" clip-rule="evenodd" d="M8.26768 2.4789C8.26768 2.4789 8.12228 1.26123 6.57014 1.26123H0.931043L0.86499 1.49008C0.86499 1.49008 3.57559 2.04264 6.17607 4.11282C8.66119 6.09141 9.47188 8.55782 9.47188 8.55782L8.26768 2.4789Z" fill="black"></path>
</svg>
