<svg width="27" height="16" viewBox="0 0 27 16" fill="none" xmlns="http://www.w3.org/2000/svg">
<path d="M13.1606 14.4725C13.2237 14.5253 13.2912 14.578 13.3576 14.6297C12.0766 15.4724 10.5388 15.9621 8.88783 15.9621C4.42897 15.9632 0.815735 12.39 0.815735 7.98158C0.815735 3.57428 4.42897 0 8.88674 0C10.5388 0 12.0766 0.490777 13.3543 1.33242C13.289 1.38731 13.2237 1.43789 13.1747 1.49386C11.2636 3.12655 10.1699 5.49325 10.1699 7.98158C10.1699 10.4688 11.2593 12.8355 13.1606 14.4725ZM18.8645 0C17.2102 0 15.6746 0.490777 14.3969 1.33242C14.4622 1.38731 14.5275 1.43789 14.5765 1.49386C16.4876 3.12655 17.5814 5.49325 17.5814 7.98158C17.5814 10.4677 16.492 12.8323 14.5906 14.4725C14.5275 14.5253 14.46 14.578 14.3937 14.6297C15.6746 15.4724 17.2102 15.9621 18.8634 15.9621C23.3223 15.9632 26.9355 12.39 26.9355 7.98158C26.9355 3.57535 23.3223 0 18.8645 0ZM13.8756 1.71126C13.7711 1.79198 13.6699 1.8727 13.5709 1.95988C11.8688 3.42252 10.7946 5.57613 10.7946 7.98158C10.7946 10.3881 11.8688 12.5406 13.5709 14.0033C13.6688 14.0894 13.7722 14.1733 13.8756 14.253C13.9801 14.1733 14.0813 14.0894 14.1804 14.0033C15.8814 12.5406 16.9567 10.3881 16.9567 7.98158C16.9567 5.57613 15.8825 3.42252 14.1804 1.95988C14.0824 1.87378 13.9801 1.79198 13.8756 1.71126Z" fill="black"></path>
</svg>
