<svg xmlns="http://www.w3.org/2000/svg" display='none'>
    <symbol id='logo' viewBox="0 0 144 24">
        <g>
            <path
                d="M5.1795 6.79544L8.59558 18.5924L11.9038 6.79544H17.0104L11.0585 23.3838H5.95191L0 6.79544H5.1795Z"
            />
            <path
                d="M27.8504 21.3884C26.3435 23.1679 24.7637 23.928 22.3386 23.928C18.8467 23.928 16.6432 21.9326 16.6432 18.9553C16.6432 16.597 18.1501 14.7455 20.5373 14.1639C22.1171 13.8011 23.7348 13.6917 27.556 13.5823V12.8566C27.556 10.6798 26.7107 9.80733 24.58 9.80733C22.8895 9.80733 22.0821 10.5329 21.9713 12.0936H17.1591C17.3427 10.2047 17.8936 9.00685 19.179 7.95586C20.5752 6.75802 22.2278 6.2858 24.8744 6.2858C29.8353 6.2858 32.2604 8.1747 32.2604 12.0936V20.4785C32.2604 20.8413 32.3711 22.4394 32.4061 23.3809H27.8504V21.3855V21.3884ZM27.556 16.2716C24.6179 16.3091 23.2946 16.525 22.4494 16.9973C21.9364 17.2881 21.5312 17.9417 21.5312 18.6299C21.5312 19.8277 22.4144 20.4814 23.9942 20.4814C25.9791 20.4814 27.5589 19.2835 27.5589 17.7603V16.2716H27.556Z"
            />
            <path d="M34.5368 0.54422H39.2033V23.3838H34.5368V0.54422Z" />
            <path
                d="M57.1348 18.7739C56.1059 22.0391 53.2407 24 49.4195 24C44.4236 24 41.0425 20.5505 41.0425 15.4337C41.0425 10.0262 44.5343 6.21381 49.4923 6.21381C54.4503 6.21381 57.4641 9.73534 57.4641 15.1803V16.4502H45.8897C46.0354 18.9898 47.248 20.2971 49.4544 20.2971C50.9235 20.2971 51.8795 19.7529 52.4304 18.5176L57.1348 18.771V18.7739ZM52.8006 13.5477C52.6898 11.2614 51.4423 9.88219 49.4573 9.88219C47.4724 9.88219 46.187 11.1895 45.8926 13.5477H52.8006Z"
            />
            <path
                d="M73.7051 8.86573C75.247 10.5358 76.0194 12.6407 76.0194 15.1458C76.0194 20.3719 72.6383 23.8934 67.4588 23.8934C62.2793 23.8934 58.8254 20.4813 58.8254 15.1458C58.8254 9.81018 62.2415 6.32608 67.4588 6.32608C70.1404 6.32608 72.0875 7.12368 73.7051 8.86573ZM63.6376 15.0363C63.6376 18.0137 65.1066 19.9371 67.3481 19.9371C69.7353 19.9371 71.2072 18.1231 71.2072 15.0363C71.2072 11.9496 69.7382 10.245 67.4239 10.245C65.1096 10.245 63.6405 12.131 63.6405 15.0363H63.6376Z"
            />
            <path
                d="M77.8936 6.79544H82.4873L82.5251 8.46551C83.6998 6.86743 85.1338 6.14182 87.3024 6.14182C90.9021 6.14182 93.0328 8.20924 93.0328 11.7308V23.3809H88.3663V13.182C88.3663 11.1146 87.3753 9.95129 85.6119 9.95129C83.7027 9.95129 82.563 11.3305 82.563 13.7262V23.3809H77.8965V6.79544H77.8936Z"
            />
            <path
                d="M100.381 2.75849C100.381 4.2817 99.1683 5.44499 97.6264 5.44499C96.0845 5.44499 94.907 4.24715 94.907 2.75849C94.907 1.26983 96.1574 0 97.6264 0C99.0955 0 100.381 1.23527 100.381 2.75849ZM95.2742 6.79544H99.9408V23.3838H95.2742V6.79544Z"
            />
            <path
                d="M107.4 6.79544L109.787 11.4054L112.25 6.79544H117.945L112.582 14.9615L118.205 23.3809H112.363L109.793 18.6615L107.222 23.3809H101.491L107.003 15.0335L101.529 6.79544H107.408H107.4Z"
            />
            <path d="M144.003 6.79544H127.237V23.3579H144.003V6.79544Z" fill="#EC2027" />
            <path d="M140.858 13.5247H130.379V16.6287H140.858V13.5247Z" fill="white" />
            <path d="M137.188 9.90234H134.046V20.2539H137.188V9.90234Z" fill="white" />
            <path d="M144.003 6.79544H127.237V23.3579H144.003V6.79544Z" fill="#EC2027" />
            <path d="M140.858 13.5247H130.379V16.6287H140.858V13.5247Z" fill="white" />
            <path d="M137.188 9.90234H134.046V20.2539H137.188V9.90234Z" fill="white" />
        </g>
    </symbol>
    <symbol id='menu-button' viewBox="0 0 20 18">
        <g>
            <path d="M0 1H20" stroke="white" />
            <path d="M0 17H20" stroke="white" />
            <path d="M0 9H20" stroke="white" />
        </g>
    </symbol>
    <symbol id='composition' viewBox="0 0 36 36">
        <g>
            <path d="M36 0H0V36H36V0Z" fill="#EC2027" />
            <path fill-rule="evenodd" clip-rule="evenodd"
                d="M8.24264 27.8386C8.0822 22.7763 9.93399 17.662 13.798 13.798C17.662 9.93396 22.7763 8.08217 27.8387 8.24262C27.9991 13.305 26.1473 18.4192 22.2833 22.2833C18.4193 26.1473 13.305 27.9991 8.24264 27.8386Z"
                fill="white" />
        </g>

    </symbol>
    <symbol viewBox="0 0 36 36" id='quality'>
        <g>
            <path d="M36 0H0V36H36V0Z" fill="#EC2027" />
            <path d="M29.247 14.6265H6.74695V21.3734H29.247V14.6265Z" fill="white" />
            <path d="M21.3672 6.75314H14.6204V29.2531H21.3672V6.75314Z" fill="white" />
        </g>
    </symbol>
    <symbol id='check' viewBox="0 0 36 36" fill='none'>
        <g>
            <path d="M36 0H0V36H36V0Z" fill="#EC2027" />
            <path d="M8 16L15 23L27.5 10.5" stroke="white" stroke-width="7" />

        </g>
    </symbol>
    <symbol id='formula' viewBox="0 0 36 36">
        <path d="M36 0H0V36H36V0Z" fill="#EC2027" />
        <path
            d="M18 5L21.7909 8.84805L27.1924 8.80761L27.152 14.2091L31 18L27.152 21.7909L27.1924 27.1924L21.7909 27.152L18 31L14.2091 27.152L8.80761 27.1924L8.84805 21.7909L5 18L8.84805 14.2091L8.80761 8.80761L14.2091 8.84805L18 5Z"
            fill="white" />
    </symbol>
    <symbol id='arrow' viewBox="0 0 10 8">
        <g>
            <path id="Vector 6" d="M0 3.78L8.83 3.78" stroke="#EC2027" stroke-opacity="1.000000"
                stroke-width="0.800000" />
            <path id="Vector 7" d="M5.04 7.57L8.83 3.78L5.04 0" stroke="#EC2027"
                stroke-opacity="1.000000" stroke-width="0.800000" />
        </g>
    </symbol>
    <symbol id='subscription' viewBox="0 0 36 36">
        <g>
            <path d="M36 0H0V36H36V0Z" fill="#EC2027" />
            <path d="M29 15H7V29H29V15Z" fill="white" />
            <path d="M20 7H16V22H20V7Z" fill="white" />
            <path d="M20 7H16V22H20V7Z" fill="white" />
            <path
                d="M26.7175 10.6109L23.889 7.78247L13.2824 18.3891L16.1109 21.2175L26.7175 10.6109Z"
                fill="white" />
            <path
                d="M12.1109 7.78241L9.28247 10.6108L19.8891 21.2174L22.7175 18.389L12.1109 7.78241Z"
                fill="white" />
        </g>
    </symbol>
    <symbol id='small-arrow' viewBox="0 0 10 9" fill='none'>
        <path d="M0 4.78491L8.83167 4.78491" stroke-width="0.8" />
        <path d="M5.04669 1L8.83169 4.785L5.04669 8.57" stroke-width="0.8" />

    </symbol>
    <symbol id='world' viewBox="0 0 48 14" fill="none">
        <g>
            <path
                d="M0 0.453299H4.49248C4.90088 0.453299 6.1261 0.317163 6.67064 2.22306C7.07905 3.44828 7.62359 5.35418 8.44041 8.21303H8.71268C9.52949 5.21805 10.2102 3.17601 10.4824 2.22306C11.027 0.317163 12.3883 0.453299 12.9329 0.453299H17.1531V13.5223H12.7967V5.76259H12.5245L10.2102 13.5223H6.94292L4.62861 5.76259H4.2202V13.5223H0M18.9228 0.453299H23.2792V8.21303H23.6876L26.5464 1.81466C27.091 0.589435 28.3162 0.453299 28.3162 0.453299H32.4003V13.5223H28.0439V5.76259H27.7717L24.9128 12.161C24.3683 13.3862 23.0069 13.5223 23.0069 13.5223H18.9228M38.2541 9.57438V13.5223H34.17V6.71554H47.5113C46.9668 8.34916 45.0609 9.57438 42.8827 9.57438"
                fill="black" />
            <path
                d="M47.7836 5.89855C48.3281 3.44811 46.6945 0.453125 43.155 0.453125H33.8978C34.17 3.31197 36.6205 5.89855 39.2071 5.89855"
                fill="black" />
        </g>
    </symbol>
    <symbol id='master' viewBox="0 0 26 16" fill="none">
        <g>
            <path id="Vector"
                d="M12.16 14.47C12.22 14.52 12.29 14.57 12.35 14.62C11.07 15.47 9.53 15.96 7.88 15.96C3.42 15.96 -0.19 12.38 -0.19 7.98C-0.19 3.57 3.42 0 7.88 0C9.53 0 11.07 0.49 12.35 1.33C12.28 1.38 12.22 1.43 12.17 1.49C10.26 3.12 9.16 5.49 9.16 7.98C9.16 10.46 10.25 12.83 12.16 14.47ZM17.86 0C16.21 0 14.67 0.49 13.39 1.33C13.46 1.38 13.52 1.43 13.57 1.49C15.48 3.12 16.58 5.49 16.58 7.98C16.58 10.46 15.49 12.83 13.59 14.47C13.52 14.52 13.46 14.57 13.39 14.62C14.67 15.47 16.21 15.96 17.86 15.96C22.32 15.96 25.93 12.38 25.93 7.98C25.93 3.57 22.32 0 17.86 0ZM12.87 1.71C12.77 1.79 12.66 1.87 12.57 1.95C10.86 3.42 9.79 5.57 9.79 7.98C9.79 10.38 10.86 12.54 12.57 14C12.66 14.08 12.77 14.17 12.87 14.25C12.98 14.17 13.08 14.08 13.18 14C14.88 12.54 15.95 10.38 15.95 7.98C15.95 5.57 14.88 3.42 13.18 1.95C13.08 1.87 12.98 1.79 12.87 1.71Z"
                fill="#000000" fill-opacity="1.000000" fill-rule="nonzero" />
        </g>
    </symbol>
    <symbol id='visa' viewBox="0 0 44 15" fill="none">
        <g>
            <path fill-rule="evenodd" clip-rule="evenodd"
                d="M18.2968 1.20901L16.1014 14.701H19.6138L21.8095 1.20901H18.2968ZM13.1462 1.20901L9.79733 10.4887L9.4012 8.49044L9.40148 8.49109L9.31419 8.04323C8.90889 7.16976 7.97021 5.50964 6.19773 4.09287C5.67371 3.6741 5.14547 3.31671 4.63483 3.01142L7.6784 14.701H11.3381L16.9266 1.20901H13.1462ZM26.8546 4.95465C26.8546 3.42926 30.2754 3.62527 31.7785 4.45354L32.2797 1.55583C32.2797 1.55583 30.7328 0.967529 29.1204 0.967529C27.3772 0.967529 23.2379 1.72985 23.2379 5.43395C23.2379 8.91997 28.0962 8.96329 28.0962 10.7935C28.0962 12.6237 23.7388 12.2966 22.3008 11.1421L21.7782 14.1709C21.7782 14.1709 23.3465 14.9332 25.7434 14.9332C28.14 14.9332 31.7566 13.6916 31.7566 10.3142C31.7566 6.80637 26.8546 6.47966 26.8546 4.95465ZM41.1879 1.20901H38.3638C37.0597 1.20901 36.7422 2.21449 36.7422 2.21449L31.504 14.701H35.1651L35.8975 12.697H40.3628L40.7748 14.701H44L41.1879 1.20901ZM36.9097 9.92835L38.7554 4.87933L39.7937 9.92835H36.9097Z"
                fill="black" />
            <path fill-rule="evenodd" clip-rule="evenodd"
                d="M8.26768 2.4789C8.26768 2.4789 8.12228 1.26123 6.57014 1.26123H0.931043L0.86499 1.49008C0.86499 1.49008 3.57559 2.04264 6.17607 4.11282C8.66119 6.09141 9.47188 8.55782 9.47188 8.55782L8.26768 2.4789Z"
                fill="black" />
        </g>
    </symbol>
    <symbol id='star' viewBox="0 0 18 17">
        <g>
            <path
                d="M8.04894 0.927049C8.3483 0.00573802 9.6517 0.00574017 9.95106 0.927051L11.2451 4.90983C11.379 5.32185 11.763 5.60081 12.1962 5.60081H16.3839C17.3527 5.60081 17.7554 6.84043 16.9717 7.40983L13.5838 9.87132C13.2333 10.126 13.0866 10.5773 13.2205 10.9894L14.5146 14.9721C14.8139 15.8934 13.7595 16.6596 12.9757 16.0902L9.58778 13.6287C9.2373 13.374 8.7627 13.374 8.41221 13.6287L5.02426 16.0902C4.24054 16.6596 3.18607 15.8934 3.48542 14.9721L4.7795 10.9894C4.91338 10.5773 4.76672 10.126 4.41623 9.87132L1.02827 7.40983C0.244561 6.84043 0.647338 5.60081 1.61606 5.60081H5.8038C6.23703 5.60081 6.62099 5.32185 6.75486 4.90983L8.04894 0.927049Z"
                fill="#282828" />
        </g>
    </symbol>
    <symbol id='close' viewBox="0 0 17 17">
        <g>
            <path id="Vector 4" d="M0 0L16 16" stroke="#282828" stroke-opacity="1.000000"
                stroke-width="1.000000" />
            <path id="Vector 5" d="M0 16L16 0" stroke="#282828" stroke-opacity="1.000000"
                stroke-width="1.000000" />
        </g>
    </symbol>
    <symbol id='slide-next' viewBox="0 0 8 16">
        <g>
            <path id="Vector 7" d="M-0.29 14.57L7 7.28L-0.29 0" stroke="#282828"
                stroke-opacity="1.000000" stroke-width="1.400000" />
        </g>
    </symbol>
    <symbol id='slide-prev' viewBox="0 0 8 16">
        <g>
            <path d="M8.28564 1L0.999933 8.28571L8.28564 15.5714" stroke="#282828"
                stroke-width="1.4" />
        </g>
    </symbol>
    <symbol id='small-arrow-back' fill="none">
        <g>
            <path id="Vector 6" d="M9.39 4.06L0.56 4.06" stroke="#FFFFFF" stroke-opacity="1.000000"
                stroke-width="0.800000" />
            <path id="Vector 7" d="M4.35 0.28L0.56 4.06L4.35 7.85" stroke="#FFFFFF"
                stroke-opacity="1.000000" stroke-width="0.800000" />
        </g>
    </symbol>
    <symbol id='accept' viewBox="0 0 36 36">
        <g>
            <path id="3" d="M0 0L36 0L36 36L0 36L0 0Z" fill="#0FBF00" fill-opacity="1.000000"
                fill-rule="evenodd" />
            <path id="Vector 12" d="" fill="#0FBF00" fill-opacity="1.000000" fill-rule="nonzero" />
            <path id="Vector 12" d="M8 16L15 23L27.5 10.5" stroke="#FFFFFF"
                stroke-opacity="1.000000" stroke-width="7.000000" />
        </g>
    </symbol>

    <symbol id='add' viewBox="0 0 13 13">
        <g>
            <rect x="6" width="1" height="13" fill="#282828" />
            <rect y="7" width="0.999999" height="13" transform="rotate(-90 0 7)" fill="#282828" />
        </g>
    </symbol>

   <symbol id='vector' viewBox="0 0 16 9" >
    <g >
        <path id="Vector 26" d="M-0.01 0L7.28 7.28L14.57 0" stroke="#282828" stroke-opacity="1.000000" stroke-width="1.400000"/>
    </g>
    
   </symbol>

</svg>